<mxfile host="app.diagrams.net" modified="2022-05-01T11:25:04.901Z" agent="5.0 (Windows NT 10.0; Win64; x64) AppleWebKit/537.36 (KHTML, like Gecko) Chrome/100.0.4896.127 Safari/537.36" etag="lhLkl7ICDAHsPsywX-K5" version="17.5.0" type="github">
  <diagram id="r3ij_EDXvFmKidpK0ZnZ" name="Page-1">
    <mxGraphModel dx="1022" dy="446" grid="1" gridSize="10" guides="1" tooltips="1" connect="1" arrows="1" fold="1" page="1" pageScale="1" pageWidth="827" pageHeight="1169" math="0" shadow="0">
      <root>
        <mxCell id="0" />
        <mxCell id="1" parent="0" />
        <mxCell id="536rNQVSKJjqmQNP-u_a-8" value="" style="edgeStyle=orthogonalEdgeStyle;rounded=0;orthogonalLoop=1;jettySize=auto;html=1;" edge="1" parent="1" source="536rNQVSKJjqmQNP-u_a-1" target="536rNQVSKJjqmQNP-u_a-2">
          <mxGeometry relative="1" as="geometry" />
        </mxCell>
        <mxCell id="536rNQVSKJjqmQNP-u_a-1" value="用户登录模块" style="rounded=1;whiteSpace=wrap;html=1;" vertex="1" parent="1">
          <mxGeometry x="354" y="170" width="120" height="60" as="geometry" />
        </mxCell>
        <mxCell id="536rNQVSKJjqmQNP-u_a-9" value="" style="edgeStyle=orthogonalEdgeStyle;rounded=0;orthogonalLoop=1;jettySize=auto;html=1;" edge="1" parent="1" source="536rNQVSKJjqmQNP-u_a-2" target="536rNQVSKJjqmQNP-u_a-5">
          <mxGeometry relative="1" as="geometry" />
        </mxCell>
        <mxCell id="536rNQVSKJjqmQNP-u_a-10" style="edgeStyle=orthogonalEdgeStyle;rounded=0;orthogonalLoop=1;jettySize=auto;html=1;exitX=0.5;exitY=1;exitDx=0;exitDy=0;entryX=0.5;entryY=0;entryDx=0;entryDy=0;" edge="1" parent="1" source="536rNQVSKJjqmQNP-u_a-2" target="536rNQVSKJjqmQNP-u_a-7">
          <mxGeometry relative="1" as="geometry" />
        </mxCell>
        <mxCell id="536rNQVSKJjqmQNP-u_a-11" style="edgeStyle=orthogonalEdgeStyle;rounded=0;orthogonalLoop=1;jettySize=auto;html=1;exitX=0.5;exitY=1;exitDx=0;exitDy=0;entryX=0.5;entryY=0;entryDx=0;entryDy=0;" edge="1" parent="1" source="536rNQVSKJjqmQNP-u_a-2" target="536rNQVSKJjqmQNP-u_a-4">
          <mxGeometry relative="1" as="geometry" />
        </mxCell>
        <mxCell id="536rNQVSKJjqmQNP-u_a-12" style="edgeStyle=orthogonalEdgeStyle;rounded=0;orthogonalLoop=1;jettySize=auto;html=1;exitX=0.5;exitY=1;exitDx=0;exitDy=0;entryX=0.5;entryY=0;entryDx=0;entryDy=0;" edge="1" parent="1" source="536rNQVSKJjqmQNP-u_a-2" target="536rNQVSKJjqmQNP-u_a-3">
          <mxGeometry relative="1" as="geometry" />
        </mxCell>
        <mxCell id="536rNQVSKJjqmQNP-u_a-13" style="edgeStyle=orthogonalEdgeStyle;rounded=0;orthogonalLoop=1;jettySize=auto;html=1;exitX=0.5;exitY=1;exitDx=0;exitDy=0;entryX=0.5;entryY=0;entryDx=0;entryDy=0;" edge="1" parent="1" source="536rNQVSKJjqmQNP-u_a-2" target="536rNQVSKJjqmQNP-u_a-6">
          <mxGeometry relative="1" as="geometry" />
        </mxCell>
        <mxCell id="536rNQVSKJjqmQNP-u_a-2" value="管理中心模块" style="rounded=1;whiteSpace=wrap;html=1;" vertex="1" parent="1">
          <mxGeometry x="354" y="290" width="120" height="60" as="geometry" />
        </mxCell>
        <mxCell id="536rNQVSKJjqmQNP-u_a-3" value="Wiki知识库管理模块" style="rounded=1;whiteSpace=wrap;html=1;" vertex="1" parent="1">
          <mxGeometry x="654" y="410" width="120" height="60" as="geometry" />
        </mxCell>
        <mxCell id="536rNQVSKJjqmQNP-u_a-4" value="项目文件管理模块" style="rounded=1;whiteSpace=wrap;html=1;" vertex="1" parent="1">
          <mxGeometry x="504" y="410" width="120" height="60" as="geometry" />
        </mxCell>
        <mxCell id="536rNQVSKJjqmQNP-u_a-5" value="项目问题管理模块" style="rounded=1;whiteSpace=wrap;html=1;" vertex="1" parent="1">
          <mxGeometry x="354" y="410" width="120" height="60" as="geometry" />
        </mxCell>
        <mxCell id="536rNQVSKJjqmQNP-u_a-6" value="项目概览管理模块" style="rounded=1;whiteSpace=wrap;html=1;" vertex="1" parent="1">
          <mxGeometry x="54" y="410" width="120" height="60" as="geometry" />
        </mxCell>
        <mxCell id="536rNQVSKJjqmQNP-u_a-7" value="项目统计管理模块" style="rounded=1;whiteSpace=wrap;html=1;" vertex="1" parent="1">
          <mxGeometry x="204" y="410" width="120" height="60" as="geometry" />
        </mxCell>
      </root>
    </mxGraphModel>
  </diagram>
</mxfile>
